#define rss_width 8
#define rss_height 8
static unsigned char rss_bits[] = {
   0x0f, 0x38, 0x60, 0x47, 0xcc, 0x98, 0x93, 0x93 };
